<?xml version="1.0" standalone="no"?>
<!DOCTYPE svg PUBLIC "-//W3C//DTD SVG 20010904//EN"
 "http://www.w3.org/TR/2001/REC-SVG-20010904/DTD/svg10.dtd">
<svg version="1.0" xmlns="http://www.w3.org/2000/svg"
 width="400.000000pt" height="400.000000pt" viewBox="0 0 400.000000 400.000000"
 preserveAspectRatio="xMidYMid meet">

<g transform="translate(0.000000,400.000000) scale(0.100000,-0.100000)"
stroke="none">
<path d="M1787 3214 c-308 -56 -590 -244 -771 -517 -257 -386 -248 -925 21
-1306 105 -148 302 -316 456 -390 317 -151 728 -146 1037 13 l65 34 287 -144
288 -144 0 715 c0 662 -1 721 -19 812 -46 234 -137 407 -310 586 -182 188
-387 299 -630 341 -115 20 -316 20 -424 0z m394 -530 c202 -60 383 -240 443
-442 24 -84 29 -205 12 -302 -43 -237 -234 -444 -466 -505 -79 -21 -242 -24
-320 -6 -200 47 -392 219 -461 415 -43 125 -45 297 -4 422 51 153 181 301 326
373 50 25 115 48 159 56 89 17 233 12 311 -11z"/>
</g>
</svg>
